<svg width="1490" height="563" viewBox="0 0 1490 563" fill="none" xmlns="http://www.w3.org/2000/svg">
<path d="M1488.32 552.18H1423.78L1416.6 475.688C1383.14 534.651 1324.97 562.538 1255.65 562.538C1107.45 562.538 1012.63 456.564 1012.63 282.066C1012.63 108.364 1107.45 0 1263.62 0C1371.19 0 1463.62 58.9629 1489.11 171.311H1395.89C1376.77 109.161 1325.77 74.8989 1261.23 74.8989C1162.43 74.8989 1103.46 153.782 1103.46 282.066C1103.46 410.35 1163.22 487.64 1263.62 487.64C1337.72 487.64 1397.48 443.019 1403.06 339.435H1274.78V270.114H1488.32V552.18Z" fill="#11201F"/>
<path d="M958.809 171.311H865.583C847.257 109.161 795.465 74.8989 730.925 74.8989C632.122 74.8989 573.159 153.782 573.159 282.066C573.159 410.35 631.325 487.64 730.925 487.64C793.075 487.64 843.273 455.768 863.99 394.414H958.012C928.53 501.982 837.696 562.538 730.925 562.538C576.346 562.538 482.324 456.564 482.324 282.066C482.324 108.364 577.143 0 733.315 0C840.883 0 933.311 58.9629 958.809 171.311Z" fill="#11201F"/>
<path d="M102.787 144.22C102.787 286.847 431.067 174.498 431.067 396.008C431.067 502.779 344.216 562.538 225.493 562.538C105.177 562.538 22.3103 507.56 0 394.414H93.2252C108.364 455.768 153.782 489.233 226.29 489.233C300.392 489.233 339.435 456.565 339.435 407.96C339.435 254.975 11.1552 368.917 11.1552 151.391C11.1552 70.1181 79.6797 0 203.183 0C309.954 0 397.602 50.995 416.725 169.718H321.906C306.767 102.787 264.537 73.3053 200.793 73.3053C138.643 73.3053 102.787 101.193 102.787 144.22Z" fill="#11201F"/>
</svg>
