<svg width="2181" height="601" viewBox="0 0 2181 601" fill="none" xmlns="http://www.w3.org/2000/svg">
<path d="M361.069 0H264.395V599.627H361.069V0Z" fill="#11201F"/>
<path d="M228.751 335.16H132.257V599.625H228.751V335.16Z" fill="#11201F"/>
<path d="M94.9507 440.844H0V600.225H94.9507V440.844Z" fill="#11201F"/>
<path d="M488.317 0.181641H393.366V301.989H488.317V0.181641Z" fill="#11201F"/>
<path d="M617.182 0H522.231V210.248H617.182V0Z" fill="#11201F"/>
<path d="M1402.64 597.174V434.198H1458.48C1495.39 434.198 1518.64 453.851 1518.64 485.727C1518.64 518.562 1495.15 537.736 1458.72 537.736H1424.69V597.174H1402.64ZM1458.24 452.173H1424.69V519.76H1457.52C1481.73 519.76 1495.87 506.818 1495.87 485.967C1495.87 465.355 1481.49 452.173 1458.24 452.173Z" fill="#11201F"/>
<path d="M1364.86 535.099C1364.86 575.364 1339.94 600.05 1299.91 600.05C1259.65 600.05 1234.72 575.364 1234.72 535.099V434.198H1257.01V535.099C1257.01 564.579 1273.07 582.314 1299.91 582.314C1326.76 582.314 1342.81 564.339 1342.81 535.099V434.198H1364.86V535.099Z" fill="#11201F"/>
<path d="M1125.9 600.05C1078.21 600.05 1048.97 567.934 1048.97 515.926C1048.97 463.917 1078.21 431.322 1125.9 431.322C1173.36 431.322 1202.84 463.917 1202.84 515.926C1202.84 567.934 1173.36 600.05 1125.9 600.05ZM1125.9 581.116C1159.93 581.116 1180.31 556.43 1180.31 515.926C1180.31 475.182 1159.93 450.256 1125.9 450.256C1091.87 450.256 1071.5 475.182 1071.5 515.926C1071.5 556.43 1091.87 581.116 1125.9 581.116Z" fill="#11201F"/>
<path d="M903.472 597.174V434.198H962.191C996.464 434.198 1018.27 451.934 1018.27 480.215C1018.27 498.909 1009.17 512.091 993.827 519.041C1004.37 523.835 1009.89 532.702 1013.96 548.76L1026.18 597.174H1002.93L992.629 553.074C987.835 532.702 979.687 528.868 960.034 528.868H925.521V597.174H903.472ZM961.711 452.173H925.521V510.893H961.232C982.802 510.893 995.505 499.388 995.505 481.413C995.505 463.438 982.802 452.173 961.711 452.173Z" fill="#11201F"/>
<path d="M866.998 597.174H850.461L848.783 571.529C838.717 590.942 820.742 600.05 799.172 600.05C755.073 600.05 727.031 568.174 727.031 515.926C727.031 463.917 755.073 431.322 801.089 431.322C832.486 431.322 859.329 448.579 867.238 481.174H844.23C838.238 461.281 821.221 450.256 800.37 450.256C768.494 450.256 749.56 475.182 749.56 515.926C749.56 556.67 768.734 581.116 801.089 581.116C825.296 581.116 844.469 566.256 845.907 531.265H804.205V513.769H866.998V597.174Z" fill="#11201F"/>
<path d="M2180.07 383.3H2163.53L2161.86 357.655C2151.79 377.068 2133.82 386.176 2112.25 386.176C2068.15 386.176 2040.1 354.3 2040.1 302.052C2040.1 250.043 2068.15 217.448 2114.16 217.448C2145.56 217.448 2172.4 234.704 2180.31 267.3H2157.3C2151.31 247.407 2134.3 236.382 2113.44 236.382C2081.57 236.382 2062.63 261.308 2062.63 302.052C2062.63 342.795 2081.81 367.242 2114.16 367.242C2138.37 367.242 2157.54 352.382 2158.98 317.391H2117.28V299.895H2180.07V383.3Z" fill="#11201F"/>
<path d="M1876.82 383.3V220.324H1899.83L1974.85 335.366L1984.19 351.424V220.324H2006.24V383.3H1983.23L1908.46 268.977L1898.87 252.2V383.3H1876.82Z" fill="#11201F"/>
<path d="M1814.97 383.3V220.324H1837.02V383.3H1814.97Z" fill="#11201F"/>
<path d="M1708.53 383.3V239.018H1652.69V220.324H1786.43V239.018H1730.58V383.3H1708.53Z" fill="#11201F"/>
<path d="M1562.32 383.3V220.324H1584.37V365.324H1666.34V383.3H1562.32Z" fill="#11201F"/>
<path d="M1524.54 321.225C1524.54 361.49 1499.62 386.176 1459.59 386.176C1419.33 386.176 1394.4 361.49 1394.4 321.225V220.324H1416.69V321.225C1416.69 350.705 1432.75 368.44 1459.59 368.44C1486.43 368.44 1502.49 350.465 1502.49 321.225V220.324H1524.54V321.225Z" fill="#11201F"/>
<path d="M1266.29 260.109C1266.29 306.126 1366.23 270.415 1366.23 337.283C1366.23 368.68 1340.83 386.176 1306.08 386.176C1271.08 386.176 1247.12 370.118 1239.93 337.283H1262.94C1268.21 356.696 1282.83 367.242 1306.32 367.242C1330.76 367.242 1343.7 356.457 1343.7 340.159C1343.7 290.308 1243.76 327.457 1243.76 261.547C1243.76 238.06 1263.41 217.448 1299.36 217.448C1330.76 217.448 1355.93 232.547 1361.92 267.3H1338.67C1333.64 245.729 1319.74 236.382 1298.89 236.382C1278.27 236.382 1266.29 245.729 1266.29 260.109Z" fill="#11201F"/>
<path d="M1080.24 383.3V220.324H1103.25L1178.26 335.366L1187.61 351.424V220.324H1209.66V383.3H1186.65L1111.87 268.977L1102.29 252.2V383.3H1080.24Z" fill="#11201F"/>
<path d="M969.497 386.176C921.803 386.176 892.563 354.06 892.563 302.052C892.563 250.043 921.803 217.448 969.497 217.448C1016.95 217.448 1046.43 250.043 1046.43 302.052C1046.43 354.06 1016.95 386.176 969.497 386.176ZM969.497 367.242C1003.53 367.242 1023.9 342.556 1023.9 302.052C1023.9 261.308 1003.53 236.382 969.497 236.382C935.464 236.382 915.092 261.308 915.092 302.052C915.092 342.556 935.464 367.242 969.497 367.242Z" fill="#11201F"/>
<path d="M867.238 267.3H844.23C838.238 247.407 821.221 236.382 800.37 236.382C768.494 236.382 749.56 261.308 749.56 302.052C749.56 342.795 768.254 367.242 800.37 367.242C820.502 367.242 836.8 356.936 843.75 337.283H866.998C857.891 368.2 831.288 386.176 800.131 386.176C754.593 386.176 727.031 354.3 727.031 302.052C727.031 250.043 755.073 217.448 801.089 217.448C832.486 217.448 859.329 234.704 867.238 267.3Z" fill="#11201F"/>
<path d="M2028.16 169.426V150.731L2125.46 25.1444H2028.16V6.4502H2151.11V25.1444L2053.8 150.731H2151.11V169.426H2028.16Z" fill="#11201F"/>
<path d="M1996.85 107.351C1996.85 147.616 1971.93 172.302 1931.9 172.302C1891.64 172.302 1866.71 147.616 1866.71 107.351V6.4502H1889V107.351C1889 136.831 1905.06 154.566 1931.9 154.566C1958.74 154.566 1974.8 136.591 1974.8 107.351V6.4502H1996.85V107.351Z" fill="#11201F"/>
<path d="M1717.14 169.426V6.4502H1775.86C1810.13 6.4502 1831.94 24.1858 1831.94 52.4668C1831.94 71.161 1822.83 84.3428 1807.5 91.2933C1818.04 96.0867 1823.55 104.954 1827.63 121.012L1839.85 169.426H1816.6L1806.3 125.326C1801.5 104.954 1793.35 101.12 1773.7 101.12H1739.19V169.426H1717.14ZM1775.38 24.4254H1739.19V83.1445H1774.9C1796.47 83.1445 1809.17 71.6404 1809.17 53.6651C1809.17 35.6899 1796.47 24.4254 1775.38 24.4254Z" fill="#11201F"/>
<path d="M1685.82 53.4255H1662.81C1656.82 33.5329 1639.81 22.5081 1618.96 22.5081C1587.08 22.5081 1568.15 47.4338 1568.15 88.1776C1568.15 128.921 1586.84 153.368 1618.96 153.368C1639.09 153.368 1655.38 143.062 1662.34 123.409H1685.58C1676.48 154.326 1649.87 172.302 1618.72 172.302C1573.18 172.302 1545.62 140.426 1545.62 88.1776C1545.62 36.1693 1573.66 3.57422 1619.67 3.57422C1651.07 3.57422 1677.91 20.8304 1685.82 53.4255Z" fill="#11201F"/>
<path d="M1459.67 169.426L1444.33 130.359H1366.2L1350.86 169.426H1329.05L1393.05 6.4502H1418.45L1482.68 169.426H1459.67ZM1400.48 42.161L1372.91 112.624H1437.62L1410.06 42.161L1405.27 27.7808L1400.48 42.161Z" fill="#11201F"/>
<path d="M1258.05 169.426V25.1444H1202.2V6.4502H1335.94V25.1444H1280.1V169.426H1258.05Z" fill="#11201F"/>
<path d="M1044.19 169.426V6.4502H1067.2L1142.22 121.492L1151.57 137.55V6.4502H1173.62V169.426H1150.61L1075.83 55.1031L1066.24 38.3263V169.426H1044.19Z" fill="#11201F"/>
<path d="M995.381 169.426L980.042 130.359H901.91L886.571 169.426H864.761L928.753 6.4502H954.158L1018.39 169.426H995.381ZM936.182 42.161L908.62 112.624H973.331L945.769 42.161L940.976 27.7808L936.182 42.161Z" fill="#11201F"/>
<path d="M749.8 46.2354C749.8 92.252 849.742 56.5412 849.742 123.409C849.742 154.806 824.337 172.302 789.585 172.302C754.594 172.302 730.627 156.244 723.437 123.409H746.445C751.718 142.822 766.337 153.368 789.825 153.368C814.271 153.368 827.214 142.583 827.214 126.285C827.214 76.4338 727.271 113.583 727.271 47.6735C727.271 24.1858 746.924 3.57422 782.875 3.57422C814.271 3.57422 839.437 18.6734 845.428 53.4255H822.18C817.147 31.8552 803.247 22.5081 782.395 22.5081C761.784 22.5081 749.8 31.8553 749.8 46.2354Z" fill="#11201F"/>
</svg>
