<svg width="2979" height="1083" viewBox="0 0 2979 1083" fill="none" xmlns="http://www.w3.org/2000/svg">
<g clip-path="url(#clip0_456_1687)">
<rect width="1082.41" height="2978.46" transform="translate(2978.46 0.000139874) rotate(90)" fill="#11201F"/>
<rect x="0.292769" y="922.003" width="18.6862" height="911.885" transform="rotate(-90 0.292769 922.003)" fill="#1B2726"/>
<rect x="911.416" y="915.399" width="7.46968" height="507.934" transform="rotate(-90 911.416 915.399)" fill="#1B2726"/>
<rect x="0.292769" y="863.449" width="17.4292" height="1085.58" transform="rotate(-90 0.292769 863.449)" fill="#1B2726"/>
<rect x="0.292891" y="806.766" width="19.919" height="1147.83" transform="rotate(-90 0.292891 806.766)" fill="#1B2726"/>
<rect x="0.292891" y="747.593" width="17.4292" height="1312.16" transform="rotate(-90 0.292891 747.593)" fill="#1B2726"/>
<rect x="0.292891" y="689.668" width="17.4292" height="1247.43" transform="rotate(-90 0.292891 689.668)" fill="#1B2726"/>
<rect x="0.292891" y="632.369" width="18.6862" height="911.885" transform="rotate(-90 0.292891 632.369)" fill="#1B2726"/>
<rect x="0.292891" y="575.059" width="19.919" height="963.58" transform="rotate(-90 0.292891 575.059)" fill="#1B2726"/>
<rect x="0.292891" y="515.887" width="17.4292" height="1043.26" transform="rotate(-90 0.292891 515.887)" fill="#1B2726"/>
<rect x="0.292891" y="457.959" width="17.4292" height="1160.28" transform="rotate(-90 0.292891 457.959)" fill="#1B2726"/>
<rect x="0.292891" y="401.277" width="19.919" height="834.107" transform="rotate(-90 0.292891 401.277)" fill="#1B2726"/>
<rect x="0.292891" y="343.35" width="19.919" height="943.661" transform="rotate(-90 0.292891 343.35)" fill="#1B2726"/>
<rect x="0.292891" y="284.178" width="17.4292" height="1063.17" transform="rotate(-90 0.292891 284.178)" fill="#1B2726"/>
<rect x="0.292891" y="226.25" width="17.4292" height="981.009" transform="rotate(-90 0.292891 226.25)" fill="#1B2726"/>
<rect x="0.292891" y="168.953" width="18.6862" height="911.885" transform="rotate(-90 0.292891 168.953)" fill="#1B2726"/>
<rect x="0.292891" y="111.641" width="19.919" height="712.103" transform="rotate(-90 0.292891 111.641)" fill="#1B2726"/>
<rect x="0.292891" y="52.4689" width="17.4292" height="679.735" transform="rotate(-90 0.292891 52.4689)" fill="#1B2726"/>
<rect x="1085.88" y="858.47" width="7.46965" height="507.934" transform="rotate(-90 1085.88 858.47)" fill="#1B2726"/>
<rect x="1148.12" y="799.298" width="7.46965" height="535.322" transform="rotate(-90 1148.12 799.298)" fill="#1B2726"/>
<rect x="1312.45" y="742.613" width="7.46965" height="612.508" transform="rotate(-90 1312.45 742.613)" fill="#1B2726"/>
<rect x="1247.72" y="684.689" width="7.46965" height="585.12" transform="rotate(-90 1247.72 684.689)" fill="#1B2726"/>
<rect x="912.177" y="626.764" width="7.47459" height="426.979" transform="rotate(-90 912.177 626.764)" fill="#1B2726"/>
<rect x="963.873" y="567.588" width="7.46965" height="450.667" transform="rotate(-90 963.873 567.588)" fill="#1B2726"/>
<rect x="1043.55" y="510.907" width="7.46965" height="488.015" transform="rotate(-90 1043.55 510.907)" fill="#1B2726"/>
<rect x="1160.57" y="452.98" width="7.46965" height="542.792" transform="rotate(-90 1160.57 452.98)" fill="#1B2726"/>
<rect x="834.4" y="396.296" width="7.46965" height="390.91" transform="rotate(-90 834.4 396.296)" fill="#1B2726"/>
<rect x="943.953" y="335.882" width="7.46965" height="440.707" transform="rotate(-90 943.953 335.882)" fill="#1B2726"/>
<rect x="1063.47" y="279.195" width="7.46965" height="497.974" transform="rotate(-90 1063.47 279.195)" fill="#1B2726"/>
<rect x="981.301" y="221.271" width="7.46965" height="458.136" transform="rotate(-90 981.301 221.271)" fill="#1B2726"/>
<rect x="912.176" y="163.345" width="7.47459" height="426.979" transform="rotate(-90 912.176 163.345)" fill="#1B2726"/>
<rect x="712.396" y="104.173" width="7.46965" height="333.643" transform="rotate(-90 712.396 104.173)" fill="#1B2726"/>
<rect x="680.028" y="47.4894" width="7.46965" height="318.703" transform="rotate(-90 680.028 47.4894)" fill="#1B2726"/>
<rect x="0.292036" y="1099.11" width="17.4292" height="1013.38" transform="rotate(-90 0.292036 1099.11)" fill="#1B2726"/>
<rect x="0.292036" y="1042.42" width="19.919" height="963.58" transform="rotate(-90 0.292036 1042.42)" fill="#1B2726"/>
<rect x="0.292036" y="983.881" width="18.6862" height="911.885" transform="rotate(-90 0.292036 983.881)" fill="#1B2726"/>
<rect x="963.872" y="1037.44" width="7.46965" height="450.667" transform="rotate(-90 963.872 1037.44)" fill="#1B2726"/>
<rect x="912.175" y="978.276" width="7.47459" height="426.979" transform="rotate(-90 912.175 978.276)" fill="#1B2726"/>
</g>
<defs>
<clipPath id="clip0_456_1687">
<rect width="1082.41" height="2978.46" fill="white" transform="translate(2978.46 0.000139874) rotate(90)"/>
</clipPath>
</defs>
</svg>
