<svg width="1083" height="2581" viewBox="0 0 1083 2581" fill="none" xmlns="http://www.w3.org/2000/svg">
<rect width="1082.41" height="2581" fill="#11201F"/>
<rect x="1054.92" y="2580.27" width="13.1234" height="640.42" transform="rotate(-180 1054.92 2580.27)" fill="#1B2726"/>
<rect x="1050.98" y="1939.85" width="5.24943" height="299.869" transform="rotate(-180 1050.98 1939.85)" fill="#1B2726"/>
<rect x="1013.79" y="2580.27" width="12.2406" height="762.409" transform="rotate(-180 1013.79 2580.27)" fill="#1B2726"/>
<rect x="973.985" y="2580.27" width="13.9892" height="806.125" transform="rotate(-180 973.985 2580.27)" fill="#1B2726"/>
<rect x="932.428" y="2580.27" width="12.2406" height="921.536" transform="rotate(-180 932.428 2580.27)" fill="#1B2726"/>
<rect x="891.747" y="2580.27" width="12.2406" height="876.071" transform="rotate(-180 891.747 2580.27)" fill="#1B2726"/>
<rect x="851.506" y="2580.27" width="13.1234" height="640.42" transform="rotate(-180 851.506 2580.27)" fill="#1B2726"/>
<rect x="811.256" y="2580.27" width="13.9892" height="676.726" transform="rotate(-180 811.256 2580.27)" fill="#1B2726"/>
<rect x="769.699" y="2580.27" width="12.2406" height="732.682" transform="rotate(-180 769.699 2580.27)" fill="#1B2726"/>
<rect x="729.016" y="2580.27" width="12.2406" height="814.869" transform="rotate(-180 729.016 2580.27)" fill="#1B2726"/>
<rect x="689.208" y="2580.27" width="13.9892" height="585.796" transform="rotate(-180 689.208 2580.27)" fill="#1B2726"/>
<rect x="648.526" y="2580.27" width="13.9892" height="662.736" transform="rotate(-180 648.526 2580.27)" fill="#1B2726"/>
<rect x="606.969" y="2580.27" width="12.2406" height="746.671" transform="rotate(-180 606.969 2580.27)" fill="#1B2726"/>
<rect x="566.287" y="2580.27" width="12.2406" height="688.966" transform="rotate(-180 566.287 2580.27)" fill="#1B2726"/>
<rect x="526.046" y="2580.27" width="13.1234" height="640.42" transform="rotate(-180 526.046 2580.27)" fill="#1B2726"/>
<rect x="485.796" y="2580.27" width="13.9892" height="500.112" transform="rotate(-180 485.796 2580.27)" fill="#1B2726"/>
<rect x="444.24" y="2580.27" width="12.2406" height="477.38" transform="rotate(-180 444.24 2580.27)" fill="#1B2726"/>
<rect x="403.557" y="2580.27" width="12.2406" height="521.096" transform="rotate(-180 403.557 2580.27)" fill="#1B2726"/>
<rect x="363.749" y="2580.27" width="13.9892" height="559.566" transform="rotate(-180 363.749 2580.27)" fill="#1B2726"/>
<rect x="322.634" y="2580.27" width="13.1234" height="640.42" transform="rotate(-180 322.634 2580.27)" fill="#1B2726"/>
<rect x="281.51" y="2580.27" width="12.2406" height="764.158" transform="rotate(-180 281.51 2580.27)" fill="#1B2726"/>
<rect x="241.691" y="2580.27" width="13.9892" height="888.312" transform="rotate(-180 241.691 2580.27)" fill="#1B2726"/>
<rect x="201.01" y="2580.27" width="13.9892" height="820.115" transform="rotate(-180 201.01 2580.27)" fill="#1B2726"/>
<rect x="159.453" y="2580.27" width="12.2406" height="764.158" transform="rotate(-180 159.453 2580.27)" fill="#1B2726"/>
<rect x="118.774" y="2580.27" width="12.2406" height="711.698" transform="rotate(-180 118.774 2580.27)" fill="#1B2726"/>
<rect x="78.9637" y="2580.27" width="13.9892" height="676.726" transform="rotate(-180 78.9637 2580.27)" fill="#1B2726"/>
<rect x="37.8492" y="2580.27" width="13.1234" height="640.42" transform="rotate(-180 37.8492 2580.27)" fill="#1B2726"/>
<rect x="1010.3" y="1817.87" width="5.24596" height="356.724" transform="rotate(-180 1010.3 1817.87)" fill="#1B2726"/>
<rect x="968.739" y="1774.15" width="5.24596" height="375.959" transform="rotate(-180 968.739 1774.15)" fill="#1B2726"/>
<rect x="928.93" y="1658.74" width="5.24596" height="430.167" transform="rotate(-180 928.93 1658.74)" fill="#1B2726"/>
<rect x="888.249" y="1704.2" width="5.24596" height="410.932" transform="rotate(-180 888.249 1704.2)" fill="#1B2726"/>
<rect x="847.568" y="1939.85" width="5.24943" height="299.869" transform="rotate(-180 847.568 1939.85)" fill="#1B2726"/>
<rect x="806.01" y="1903.55" width="5.24596" height="316.505" transform="rotate(-180 806.01 1903.55)" fill="#1B2726"/>
<rect x="766.202" y="1847.59" width="5.24596" height="342.734" transform="rotate(-180 766.202 1847.59)" fill="#1B2726"/>
<rect x="725.519" y="1765.41" width="5.24596" height="381.205" transform="rotate(-180 725.519 1765.41)" fill="#1B2726"/>
<rect x="685.711" y="1994.48" width="5.24596" height="274.537" transform="rotate(-180 685.711 1994.48)" fill="#1B2726"/>
<rect x="643.28" y="1917.54" width="5.24596" height="309.51" transform="rotate(-180 643.28 1917.54)" fill="#1B2726"/>
<rect x="603.472" y="1833.6" width="5.24596" height="349.729" transform="rotate(-180 603.472 1833.6)" fill="#1B2726"/>
<rect x="562.79" y="1891.31" width="5.24596" height="321.751" transform="rotate(-180 562.79 1891.31)" fill="#1B2726"/>
<rect x="522.109" y="1939.85" width="5.24943" height="299.869" transform="rotate(-180 522.109 1939.85)" fill="#1B2726"/>
<rect x="480.55" y="2080.16" width="5.24596" height="234.318" transform="rotate(-180 480.55 2080.16)" fill="#1B2726"/>
<rect x="440.742" y="2102.89" width="5.24596" height="223.827" transform="rotate(-180 440.742 2102.89)" fill="#1B2726"/>
<rect x="400.06" y="2059.18" width="5.24596" height="243.062" transform="rotate(-180 400.06 2059.18)" fill="#1B2726"/>
<rect x="360.252" y="2020.71" width="5.24596" height="260.548" transform="rotate(-180 360.252 2020.71)" fill="#1B2726"/>
<rect x="318.696" y="1939.85" width="5.24943" height="299.869" transform="rotate(-180 318.696 1939.85)" fill="#1B2726"/>
<rect x="278.013" y="1816.12" width="5.24596" height="356.724" transform="rotate(-180 278.013 1816.12)" fill="#1B2726"/>
<rect x="238.194" y="1691.96" width="5.24596" height="414.429" transform="rotate(-180 238.194 1691.96)" fill="#1B2726"/>
<rect x="195.764" y="1760.16" width="5.24596" height="384.702" transform="rotate(-180 195.764 1760.16)" fill="#1B2726"/>
<rect x="155.955" y="1816.12" width="5.24596" height="356.724" transform="rotate(-180 155.955 1816.12)" fill="#1B2726"/>
<rect x="115.277" y="1868.58" width="5.24596" height="333.991" transform="rotate(-180 115.277 1868.58)" fill="#1B2726"/>
<rect x="75.4664" y="1903.55" width="5.24596" height="316.505" transform="rotate(-180 75.4664 1903.55)" fill="#1B2726"/>
<rect x="33.9122" y="1939.85" width="5.24943" height="299.869" transform="rotate(-180 33.9122 1939.85)" fill="#1B2726"/>
</svg>
